<?xml version="1.0" standalone="no"?>
<svg xmlns:xlink="http://www.w3.org/1999/xlink" id="wave" style="transform:rotate(180deg); transition: 0.3s" viewBox="0 0 1440 130" version="1.1" xmlns="http://www.w3.org/2000/svg"><defs><linearGradient id="sw-gradient-0" x1="0" x2="0" y1="1" y2="0"><stop stop-color="rgba(0, 0, 0, 1)" offset="0%"/><stop stop-color="rgba(0, 0, 0, 1)" offset="100%"/></linearGradient></defs><path style="transform:translate(0, 0px); opacity:1" fill="url(#sw-gradient-0)" d="M0,26L34.3,21.7C68.6,17,137,9,206,4.3C274.3,0,343,0,411,10.8C480,22,549,43,617,54.2C685.7,65,754,65,823,69.3C891.4,74,960,82,1029,88.8C1097.1,95,1166,100,1234,84.5C1302.9,69,1371,35,1440,34.7C1508.6,35,1577,69,1646,80.2C1714.3,91,1783,78,1851,78C1920,78,1989,91,2057,84.5C2125.7,78,2194,52,2263,36.8C2331.4,22,2400,17,2469,13C2537.1,9,2606,4,2674,8.7C2742.9,13,2811,26,2880,32.5C2948.6,39,3017,39,3086,45.5C3154.3,52,3223,65,3291,60.7C3360,56,3429,35,3497,34.7C3565.7,35,3634,56,3703,65C3771.4,74,3840,69,3909,65C3977.1,61,4046,56,4114,62.8C4182.9,69,4251,87,4320,78C4388.6,69,4457,35,4526,32.5C4594.3,30,4663,61,4731,67.2C4800,74,4869,56,4903,47.7L4937.1,39L4937.1,130L4902.9,130C4868.6,130,4800,130,4731,130C4662.9,130,4594,130,4526,130C4457.1,130,4389,130,4320,130C4251.4,130,4183,130,4114,130C4045.7,130,3977,130,3909,130C3840,130,3771,130,3703,130C3634.3,130,3566,130,3497,130C3428.6,130,3360,130,3291,130C3222.9,130,3154,130,3086,130C3017.1,130,2949,130,2880,130C2811.4,130,2743,130,2674,130C2605.7,130,2537,130,2469,130C2400,130,2331,130,2263,130C2194.3,130,2126,130,2057,130C1988.6,130,1920,130,1851,130C1782.9,130,1714,130,1646,130C1577.1,130,1509,130,1440,130C1371.4,130,1303,130,1234,130C1165.7,130,1097,130,1029,130C960,130,891,130,823,130C754.3,130,686,130,617,130C548.6,130,480,130,411,130C342.9,130,274,130,206,130C137.1,130,69,130,34,130L0,130Z"/></svg>